<?xml version="1.0" standalone="no"?>
<!DOCTYPE svg PUBLIC "-//W3C//DTD SVG 20010904//EN"
 "http://www.w3.org/TR/2001/REC-SVG-20010904/DTD/svg10.dtd">
<svg version="1.0" xmlns="http://www.w3.org/2000/svg"
 width="1517.000000pt" height="330.000000pt" viewBox="0 0 1517.000000 330.000000"
 preserveAspectRatio="xMidYMid meet">

<g transform="translate(0.000000,330.000000) scale(0.100000,-0.100000)"
fill="#FFFFFF" stroke="none">
<path d="M8010 3265 l0 -35 185 0 185 0 0 -1495 0 -1495 -185 0 -185 0 0 -35
0 -35 586 0 585 0 -3 33 -3 32 -187 3 -188 2 0 1530 0 1530 -395 0 -395 0 0
-35z"/>
<path d="M5470 3110 c-94 -32 -170 -140 -170 -240 0 -133 127 -260 260 -260
133 0 260 127 260 260 0 135 -128 261 -264 260 -17 -1 -56 -9 -86 -20z"/>
<path d="M12530 2885 c-49 -26 -66 -30 -162 -33 -79 -3 -119 0 -153 11 l-45
16 0 -310 0 -309 -117 0 c-65 0 -216 -3 -335 -7 l-218 -6 0 331 c0 183 -2 332
-4 332 -2 0 -25 -12 -52 -27 -43 -24 -62 -28 -156 -31 -80 -3 -119 0 -154 12
-26 9 -49 16 -51 16 -2 0 -3 -142 -3 -315 l0 -315 -185 0 -185 0 0 -35 0 -35
185 0 184 0 4 -832 c3 -764 5 -838 21 -892 54 -182 155 -278 343 -327 101 -26
312 -36 408 -20 135 24 253 101 325 212 l36 56 23 -43 c32 -59 120 -140 183
-168 99 -44 200 -61 368 -61 192 0 258 18 381 106 12 9 35 2 110 -35 128 -62
231 -80 429 -73 164 6 230 20 340 74 100 49 176 125 228 229 l40 79 12 -45
c41 -156 138 -273 258 -311 95 -30 256 -37 353 -15 80 18 213 83 216 107 2 8
-4 22 -11 32 -14 18 -17 18 -83 -15 -55 -27 -82 -34 -143 -36 -66 -3 -79 -1
-110 20 -44 30 -60 63 -71 147 -4 36 -9 363 -9 726 0 735 -1 741 -66 874 -79
160 -247 278 -461 323 -114 24 -356 29 -463 9 -174 -32 -307 -96 -406 -195
-99 -100 -143 -200 -144 -326 0 -155 59 -210 227 -210 163 1 217 74 188 255
-33 208 -15 300 72 355 75 48 142 64 273 64 145 1 203 -17 270 -83 79 -77 109
-192 110 -411 0 -263 -46 -363 -205 -443 -63 -31 -256 -98 -511 -177 -231 -71
-344 -123 -419 -192 -93 -85 -135 -172 -150 -310 -12 -114 28 -280 82 -340 14
-16 12 -19 -31 -50 -26 -18 -68 -41 -94 -50 -55 -20 -167 -23 -223 -6 -52 15
-109 65 -136 119 -54 107 -53 96 -53 1021 l0 858 343 2 342 3 3 33 3 32 -345
0 -346 0 -2 333 -3 332 -55 -30z m-358 -1552 l3 -848 -34 -75 c-46 -100 -132
-188 -214 -218 -64 -24 -166 -29 -230 -11 -51 14 -113 71 -144 133 -50 99 -52
135 -53 1034 l0 832 335 0 334 0 3 -847z m2138 -573 c-22 -229 -63 -335 -170
-441 -89 -88 -146 -111 -290 -117 -122 -5 -169 5 -237 51 -92 62 -139 162
-149 322 -8 110 6 190 46 270 69 141 138 188 470 321 221 89 249 103 290 144
l45 45 3 -240 c2 -132 -2 -292 -8 -355z"/>
<path d="M50 2311 c56 -48 233 -246 313 -348 102 -132 216 -312 277 -438 32
-66 90 -213 129 -326 88 -259 117 -331 187 -471 162 -324 350 -519 608 -630
85 -37 227 -78 273 -78 l22 0 -30 113 c-119 450 -319 890 -528 1162 l-46 60
41 -32 c47 -37 187 -194 264 -296 186 -246 347 -559 441 -857 l33 -105 13 55
c27 117 38 323 25 473 -45 522 -280 922 -711 1211 -230 154 -835 414 -1190
512 -165 45 -179 45 -121 -5z"/>
<path d="M6945 2310 c-158 -20 -359 -98 -509 -198 -231 -153 -429 -431 -487
-682 -34 -144 -29 -341 12 -490 27 -103 106 -261 177 -356 70 -94 203 -224
291 -283 94 -64 256 -138 368 -168 88 -24 115 -27 263 -27 183 1 246 13 405
77 366 150 646 488 711 859 20 116 14 287 -16 407 -52 214 -204 444 -392 596
-247 199 -555 298 -823 265z m309 -85 c258 -68 392 -288 437 -712 16 -153 7
-607 -15 -728 -51 -288 -159 -484 -308 -557 -155 -76 -452 -78 -615 -3 -163
74 -280 298 -323 620 -18 130 -24 447 -11 603 41 509 190 741 510 792 76 12
253 4 325 -15z"/>
<path d="M9921 2309 c-234 -28 -454 -141 -636 -323 -205 -207 -319 -461 -332
-743 -31 -665 436 -1143 1117 -1143 269 0 461 71 620 231 87 87 130 155 176
277 35 92 33 102 -17 102 -23 0 -29 -9 -57 -83 -58 -152 -141 -261 -260 -338
-141 -93 -272 -124 -482 -116 -196 7 -287 44 -402 165 -134 141 -190 317 -206
652 -4 91 -6 213 -4 273 l4 107 744 0 c644 0 745 2 750 15 9 23 -15 216 -37
294 -51 187 -183 371 -342 480 -169 115 -426 176 -636 150z m264 -85 c124 -42
196 -128 242 -289 16 -55 30 -399 19 -459 l-7 -36 -494 0 -495 0 0 49 c0 79
39 288 72 380 76 218 202 336 393 371 69 12 210 4 270 -16z"/>
<path d="M1429 2295 c-87 -16 -198 -55 -281 -96 -56 -28 -80 -49 -57 -49 6 0
77 -31 156 -70 133 -64 319 -176 369 -221 20 -19 22 -19 120 31 119 61 229 91
345 93 81 2 86 3 77 20 -21 39 -168 174 -229 210 -140 82 -332 114 -500 82z"/>
<path d="M2095 2234 c67 -36 184 -156 220 -225 26 -51 34 -58 79 -73 131 -41
264 -153 366 -308 l60 -92 0 88 c0 259 -113 468 -303 561 -109 53 -175 67
-332 71 l-140 4 50 -26z"/>
<path d="M4783 2253 l-213 -3 0 -35 0 -35 196 0 c182 0 195 -1 190 -17 -18
-55 -634 -1485 -640 -1486 -4 -1 -147 336 -316 748 l-308 750 196 5 197 5 3
33 3 32 -590 0 -591 0 0 -35 0 -35 167 -2 168 -3 437 -1075 c240 -591 439
-1079 440 -1084 2 -5 206 470 452 1055 247 585 454 1074 459 1087 10 21 14 22
169 22 l158 0 0 -970 0 -970 -185 0 -185 0 0 -35 0 -35 580 0 580 0 0 35 0 35
-185 0 -185 0 0 1005 0 1005 -153 0 c-85 0 -261 2 -393 3 -131 2 -335 2 -451
0z"/>
<path d="M1983 1835 c-91 -25 -218 -97 -210 -119 3 -6 35 -51 71 -101 175
-234 314 -534 347 -745 6 -41 13 -85 15 -97 4 -21 12 -15 72 48 104 111 249
199 411 250 l74 24 -6 90 c-14 210 -123 430 -263 532 -64 47 -174 99 -249 118
-73 18 -192 18 -262 0z"/>
<path d="M2854 1454 c15 -39 35 -153 41 -239 l7 -91 82 9 c44 4 114 5 154 2
l73 -6 -7 28 c-13 55 -56 133 -100 182 -47 52 -154 113 -223 127 -30 6 -33 4
-27 -12z"/>
<path d="M3145 1009 c-148 -15 -230 -30 -325 -61 -332 -107 -552 -310 -638
-590 -12 -36 -24 -95 -27 -130 l-6 -63 41 75 c52 93 125 192 182 246 50 48
137 114 149 114 5 0 -7 -20 -26 -45 -19 -25 -55 -84 -81 -131 -57 -105 -176
-365 -170 -371 10 -10 165 41 240 80 104 53 231 178 297 293 25 43 65 112 88
151 80 140 198 281 326 391 33 28 53 51 45 51 -8 -1 -51 -5 -95 -10z"/>
</g>
</svg>
